<svg width="32" height="28" viewBox="0 0 32 28" fill="none" xmlns="http://www.w3.org/2000/svg">
<path d="M32 4.07529C30.8204 4.59902 29.5559 4.95067 28.2266 5.11028C29.5834 4.29725 30.6258 3.01037 31.1146 1.47908C29.8477 2.22976 28.4386 2.77594 26.9447 3.07022C25.7476 1.79331 24.0418 0.997742 22.1538 0.997742C18.5276 0.997742 15.5872 3.93563 15.5872 7.56184C15.5872 8.0756 15.6471 8.57689 15.7593 9.05822C10.3025 8.78388 5.46676 6.17021 2.22711 2.19734C1.66098 3.16998 1.33926 4.29725 1.33926 5.49934C1.33926 7.77632 2.49645 9.78646 4.25968 10.9661C3.18229 10.9312 2.16975 10.6344 1.28439 10.1431C1.28439 10.1705 1.28439 10.198 1.28439 10.2254C1.28439 13.4077 3.5489 16.0588 6.54914 16.6648C6.00047 16.8144 5.41937 16.8942 4.82082 16.8942C4.39685 16.8942 3.98535 16.8543 3.58382 16.7745C4.42179 19.3807 6.84592 21.2836 9.71647 21.336C7.4719 23.0967 4.64126 24.1442 1.56371 24.1442C1.0325 24.1442 0.511262 24.1143 0 24.0519C2.90297 25.9174 6.35461 27.0023 10.0631 27.0023C22.1389 27.0023 28.7429 16.999 28.7429 8.325C28.7429 8.04068 28.7354 7.75388 28.7254 7.47456C30.0073 6.5493 31.1196 5.3921 32 4.07529Z" fill="#273D40"/>
</svg>
